<svg xmlns="http://www.w3.org/2000/svg" width="1000" height="900" viewBox="0 0 1000 900">
  <defs>
    <linearGradient id="landBg" x1="0" y1="0" x2="1" y2="1">
      <stop offset="0%" stop-color="#eef1fb"></stop>
      <stop offset="100%" stop-color="#e2e7f7"></stop>
    </linearGradient>
    <linearGradient id="river" x1="0" y1="0" x2="1" y2="0">
      <stop offset="0%" stop-color="#bcd4f5"></stop>
      <stop offset="100%" stop-color="#9fc0ea"></stop>
    </linearGradient>
    <radialGradient id="hubGlow" cx="50%" cy="50%" r="50%">
      <stop offset="0%" stop-color="#dd241c" stop-opacity="0.22"></stop>
      <stop offset="100%" stop-color="#dd241c" stop-opacity="0"></stop>
    </radialGradient>
    <pattern id="grid" width="60" height="60" patternUnits="userSpaceOnUse">
      <path d="M60 0 L0 0 L0 60" fill="none" stroke="#ffffff" stroke-width="1" opacity="0.5"></path>
    </pattern>
  </defs>

  <rect width="1000" height="900" rx="0" fill="url(#landBg)"></rect>
  <rect width="1000" height="900" fill="url(#grid)"></rect>

  
  <ellipse cx="220" cy="220" rx="150" ry="100" fill="#2fa84f" opacity="0.08"></ellipse>
  <ellipse cx="820" cy="240" rx="170" ry="110" fill="#2fa84f" opacity="0.07"></ellipse>
  <ellipse cx="180" cy="620" rx="140" ry="120" fill="#2fa84f" opacity="0.07"></ellipse>

  
  <path d="M0 690 C 200 640, 350 760, 560 720 C 760 685, 850 760, 1000 700 L1000 780 C 850 830, 760 760, 560 800 C 350 840, 200 730, 0 780 Z" fill="url(#river)" opacity="0.55"></path>

  
  <circle cx="430" cy="300" r="150" fill="url(#hubGlow)"></circle>

  
  <g fill="none" stroke="#ffffff" stroke-width="7" stroke-linecap="round" opacity="0.9">
    <path d="M430 300 L520 380"></path>
    <path d="M520 380 L600 460"></path>
    <path d="M600 460 L700 560"></path>
    <path d="M700 560 L780 610"></path>
    <path d="M600 460 L660 660"></path>
    <path d="M430 300 L470 700"></path>
    <path d="M470 700 L560 730"></path>
    <path d="M560 730 L500 780"></path>
    <path d="M470 700 L400 800"></path>
  </g>
  <g fill="none" stroke="#c7cee8" stroke-width="3" stroke-linecap="round" stroke-dasharray="2 10" opacity="0.9">
    <path d="M430 300 L520 380"></path>
    <path d="M520 380 L600 460"></path>
    <path d="M600 460 L700 560"></path>
    <path d="M700 560 L780 610"></path>
    <path d="M600 460 L660 660"></path>
    <path d="M430 300 L470 700"></path>
    <path d="M470 700 L560 730"></path>
    <path d="M560 730 L500 780"></path>
    <path d="M470 700 L400 800"></path>
  </g>

  
  <g transform="translate(430 300)">
    <ellipse cx="0" cy="2" rx="12.15" ry="3.2*1.35" fill="rgba(9,15,45,0.18)"></ellipse>
    <path d="M0 -2.7 C 14.850000000000001 -2.7 14.850000000000001 -32.400000000000006 0 -40.5 C -14.850000000000001 -32.400000000000006 -14.850000000000001 -2.7 0 -2.7 Z" fill="#dd241c" stroke="#ffffff" stroke-width="2.16"></path>
    <circle cx="0" cy="-25.650000000000002" r="7.425000000000001" fill="#ffffff"></circle>
  </g>
  <g transform="translate(520 380)">
    <ellipse cx="0" cy="2" rx="9" ry="3.2*1" fill="rgba(9,15,45,0.18)"></ellipse>
    <path d="M0 -2 C 11 -2 11 -24 0 -30 C -11 -24 -11 -2 0 -2 Z" fill="#2fa84f" stroke="#ffffff" stroke-width="1.6"></path>
    <circle cx="0" cy="-19" r="5.5" fill="#ffffff"></circle>
  </g>
  <g transform="translate(600 460)">
    <ellipse cx="0" cy="2" rx="9" ry="3.2*1" fill="rgba(9,15,45,0.18)"></ellipse>
    <path d="M0 -2 C 11 -2 11 -24 0 -30 C -11 -24 -11 -2 0 -2 Z" fill="#16215c" stroke="#ffffff" stroke-width="1.6"></path>
    <circle cx="0" cy="-19" r="5.5" fill="#ffffff"></circle>
  </g>
  <g transform="translate(700 560)">
    <ellipse cx="0" cy="2" rx="9" ry="3.2*1" fill="rgba(9,15,45,0.18)"></ellipse>
    <path d="M0 -2 C 11 -2 11 -24 0 -30 C -11 -24 -11 -2 0 -2 Z" fill="#2fa84f" stroke="#ffffff" stroke-width="1.6"></path>
    <circle cx="0" cy="-19" r="5.5" fill="#ffffff"></circle>
  </g>
  <g transform="translate(780 610)">
    <ellipse cx="0" cy="2" rx="9" ry="3.2*1" fill="rgba(9,15,45,0.18)"></ellipse>
    <path d="M0 -2 C 11 -2 11 -24 0 -30 C -11 -24 -11 -2 0 -2 Z" fill="#16215c" stroke="#ffffff" stroke-width="1.6"></path>
    <circle cx="0" cy="-19" r="5.5" fill="#ffffff"></circle>
  </g>
  <g transform="translate(660 660)">
    <ellipse cx="0" cy="2" rx="9" ry="3.2*1" fill="rgba(9,15,45,0.18)"></ellipse>
    <path d="M0 -2 C 11 -2 11 -24 0 -30 C -11 -24 -11 -2 0 -2 Z" fill="#2fa84f" stroke="#ffffff" stroke-width="1.6"></path>
    <circle cx="0" cy="-19" r="5.5" fill="#ffffff"></circle>
  </g>
  <g transform="translate(470 700)">
    <ellipse cx="0" cy="2" rx="9" ry="3.2*1" fill="rgba(9,15,45,0.18)"></ellipse>
    <path d="M0 -2 C 11 -2 11 -24 0 -30 C -11 -24 -11 -2 0 -2 Z" fill="#16215c" stroke="#ffffff" stroke-width="1.6"></path>
    <circle cx="0" cy="-19" r="5.5" fill="#ffffff"></circle>
  </g>
  <g transform="translate(560 730)">
    <ellipse cx="0" cy="2" rx="9" ry="3.2*1" fill="rgba(9,15,45,0.18)"></ellipse>
    <path d="M0 -2 C 11 -2 11 -24 0 -30 C -11 -24 -11 -2 0 -2 Z" fill="#2fa84f" stroke="#ffffff" stroke-width="1.6"></path>
    <circle cx="0" cy="-19" r="5.5" fill="#ffffff"></circle>
  </g>
  <g transform="translate(500 780)">
    <ellipse cx="0" cy="2" rx="9" ry="3.2*1" fill="rgba(9,15,45,0.18)"></ellipse>
    <path d="M0 -2 C 11 -2 11 -24 0 -30 C -11 -24 -11 -2 0 -2 Z" fill="#16215c" stroke="#ffffff" stroke-width="1.6"></path>
    <circle cx="0" cy="-19" r="5.5" fill="#ffffff"></circle>
  </g>
  <g transform="translate(400 800)">
    <ellipse cx="0" cy="2" rx="9" ry="3.2*1" fill="rgba(9,15,45,0.18)"></ellipse>
    <path d="M0 -2 C 11 -2 11 -24 0 -30 C -11 -24 -11 -2 0 -2 Z" fill="#2fa84f" stroke="#ffffff" stroke-width="1.6"></path>
    <circle cx="0" cy="-19" r="5.5" fill="#ffffff"></circle>
  </g>
  <text x="430" y="344" text-anchor="middle" font-family="Poppins, sans-serif" font-size="15" font-weight="800" fill="#16215c" stroke="#ffffff" stroke-width="3" paint-order="stroke">Uxbridge</text><text x="520" y="392" text-anchor="middle" font-family="Poppins, sans-serif" font-size="12.5" font-weight="700" fill="#16215c" stroke="#ffffff" stroke-width="3" paint-order="stroke">West Drayton</text><text x="600" y="472" text-anchor="middle" font-family="Poppins, sans-serif" font-size="12.5" font-weight="700" fill="#16215c" stroke="#ffffff" stroke-width="3" paint-order="stroke">Hayes</text><text x="700" y="572" text-anchor="middle" font-family="Poppins, sans-serif" font-size="12.5" font-weight="700" fill="#16215c" stroke="#ffffff" stroke-width="3" paint-order="stroke">Hounslow</text><text x="780" y="622" text-anchor="middle" font-family="Poppins, sans-serif" font-size="12.5" font-weight="700" fill="#16215c" stroke="#ffffff" stroke-width="3" paint-order="stroke">Isleworth</text><text x="660" y="672" text-anchor="middle" font-family="Poppins, sans-serif" font-size="12.5" font-weight="700" fill="#16215c" stroke="#ffffff" stroke-width="3" paint-order="stroke">Feltham</text><text x="470" y="712" text-anchor="middle" font-family="Poppins, sans-serif" font-size="12.5" font-weight="700" fill="#16215c" stroke="#ffffff" stroke-width="3" paint-order="stroke">Staines</text><text x="560" y="742" text-anchor="middle" font-family="Poppins, sans-serif" font-size="12.5" font-weight="700" fill="#16215c" stroke="#ffffff" stroke-width="3" paint-order="stroke">Ashford</text><text x="500" y="792" text-anchor="middle" font-family="Poppins, sans-serif" font-size="12.5" font-weight="700" fill="#16215c" stroke="#ffffff" stroke-width="3" paint-order="stroke">Stanwell</text><text x="400" y="812" text-anchor="middle" font-family="Poppins, sans-serif" font-size="12.5" font-weight="700" fill="#16215c" stroke="#ffffff" stroke-width="3" paint-order="stroke">Chertsey</text>

  
  <g transform="translate(910 70)">
    <circle r="34" fill="#ffffff" opacity="0.85"></circle>
    <circle r="34" fill="none" stroke="#16215c" stroke-width="2" opacity="0.5"></circle>
    <path d="M0 -20 L6 0 L0 20 L-6 0 Z" fill="#dd241c"></path>
    <text x="0" y="-24" text-anchor="middle" font-family="Poppins, sans-serif" font-size="11" font-weight="800" fill="#16215c">N</text>
  </g>
</svg>